<svg id="Layer_1" data-name="Layer 1" xmlns="http://www.w3.org/2000/svg" width="12.6in" height="6.3in" viewBox="0 0 904.1 451"><title>Artboard 7</title><path d="M275.8,206.8a174.9,174.9,0,0,0-23,5.2V200.5c-8.1,6.8-14.7,11.5-22.9,11.5-10.1,0-18.8-6.1-18.8-22.4V160.5c0-8.1-1.2-9-4.9-9.8L202,150v-3.9a204.4,204.4,0,0,0,21.4-2.7c-.4,4.8-.4,12-.4,21.9v20.4c0,13.2,6.9,16.9,13.6,16.9s11.1-2.4,16.2-7.2V160.5c0-8.1-1.8-9.2-6.9-9.9l-4.8-.6v-3.9a228.8,228.8,0,0,0,23.6-2.7v50.2c0,7.5,1.2,8.6,6.9,8.9h4.2Z" fill="#d32027" stroke="#d32128" stroke-miterlimit="10"/><path d="M326.3,210.3V206c8.7-.8,9.6-1.9,9.6-12.1V169.2c0-10.5-3.7-17.6-13.6-17.6-6.2,0-12,3.6-16.7,7.8v35.1c0,10.3.9,10.7,9.8,11.5v4.3H283V206c9.9-1,10.8-1.6,10.8-11.5V163.6c0-9.7-1.1-10.2-9.2-11.5v-3.9a86.7,86.7,0,0,0,21-6V154l10.2-6.9c4.2-2.7,8.1-4.5,12.5-4.5,12,0,19.5,8.9,19.5,23.4v28.5c0,10.2.9,10.7,9.6,11.5v4.3Z" fill="#d32027" stroke="#d32128" stroke-miterlimit="10"/><path d="M438.7,206.5c-3.2.6-14.4,2.4-23.3,5.5v-9.7c-2.7,1.7-6.6,3.7-9.3,5.4-6,3.4-10,4.3-11.8,4.3-12,0-27.9-12-27.9-32.9s18.3-36.5,38.8-36.5c2.1,0,7.1.3,10.2,1.7V122.2c0-9.6-1-9.9-11.7-10.8v-3.9c7.5-1,18-3.1,23.6-5.1v90.5c0,7.8,1,8.8,6.6,9.1l4.8.3Zm-23.3-50.4c-3.4-5.2-9.9-7.6-15.7-7.6s-20,4.8-20,26.4c0,18.1,11.3,27.7,20.9,27.9,5.4,0,11.2-2.8,14.8-5.4Z" fill="#d32027" stroke="#d32128" stroke-miterlimit="10"/><path d="M493.3,212a11.2,11.2,0,0,1-7.1-2.8,14.6,14.6,0,0,1-3.6-6.7c-6,4-13.3,9.5-18,9.5a18.4,18.4,0,0,1-18.3-18.4c0-7.3,4.1-12.1,12.3-15s20.4-7,23.7-9.7v-3c0-10.7-5.4-16.8-13.2-16.8a8.6,8.6,0,0,0-7,3.4c-1.7,2.1-2.7,5.4-4.1,9.8-.7,2.4-2.1,3.4-4.3,3.4s-6.6-3-6.6-6.6c0-2.1,1.9-3.9,4.9-6s13.1-8.7,21.6-10.5a20.7,20.7,0,0,1,12.6,4.1c5.3,4.5,7.7,9.6,7.7,17.4V193c0,6.9,2.5,9,5.2,9a11.7,11.7,0,0,0,5.4-1.6l1.5,4.1Zm-11-37.9c-3.3,1.7-10.5,4.8-13.9,6.3-5.7,2.6-9.2,5.4-9.2,11,0,7.9,6,11.5,10.8,11.5s9.3-2.4,12.3-5.4Z" fill="#d32027" stroke="#d32128" stroke-miterlimit="10"/><path d="M594.7,210.3V206c8.8-.8,9.9-1.5,9.9-11.9V169c0-10.6-3.6-17.4-12.9-17.4-5.7,0-11,3.2-16.7,7.8a49.2,49.2,0,0,1,.5,6.5V195c0,9.4,1.3,10.2,9.6,11v4.3H553V206c9.3-.8,10.6-1.5,10.6-11.3V168.9c0-11.1-3.4-17.3-12.6-17.3-6,0-11.8,4.1-16.5,7.8v35.3c0,9.8,1.1,10.5,9.6,11.3v4.3H511.9V206c9.9-.8,10.8-1.5,10.8-11.3V163.6c0-9.6-.6-10.2-9-11.7v-3.7a82.2,82.2,0,0,0,20.8-6v12.1a119.3,119.3,0,0,1,11.1-7.8c3.8-2.4,7.1-3.9,11.9-3.9,7.2,0,13.3,4.5,16.3,12.3,4.2-3.3,8.1-5.8,11.9-8.4a22.7,22.7,0,0,1,11.8-3.9c11.7,0,18.9,8.4,18.9,23.1v29c0,10,.9,10.5,9.5,11.3v4.3Z" fill="#d32027" stroke="#d32128" stroke-miterlimit="10"/><path d="M237.5,95.2a2.1,2.1,0,0,1-.4.6c-.8,15.9-2.3,25.7-4.5,29.7a7.5,7.5,0,0,1-7.2,4,49.4,49.4,0,0,1-9.8-1.4,24.1,24.1,0,0,0-.1-3.8,57.7,57.7,0,0,0,9.6,1.3c2,0,3.1-.5,4.2-2.6s3-12.4,3.5-24.8H215.3c-2.8,13.1-8.3,23.9-18.2,31.4a19.5,19.5,0,0,0-3.1-2.4c9.5-7.1,14.5-16.5,17.2-29.1H196V94.4h15.9c.6-3.8,1-7.4,1.3-12l5.4.5c0,.5-.6.9-1.3,1-.4,4-.7,7.1-1.3,10.6h17.9l.8-.3Zm-9.3-13.3a36.3,36.3,0,0,1,6.9,8.5l-2.2,1.5a46.9,46.9,0,0,0-6.8-8.5Zm8.6-2.4a48.7,48.7,0,0,1,7,8.4l-2.3,1.5a56,56,0,0,0-6.7-8.4Z" fill="#d32027" stroke="#fff" stroke-miterlimit="10"/><path d="M250.1,86.5A69,69,0,0,1,266.5,94l-2.1,3.5a68.8,68.8,0,0,0-16.1-7.7Zm-.2,38.1c19.5-6,32.5-17,39.1-32.2a19.9,19.9,0,0,0,3.6,2.3c-6.9,15-20.3,26.7-39,33a1.9,1.9,0,0,1-.7,1.2Z" fill="#d32027" stroke="#fff" stroke-miterlimit="10"/><path d="M337.1,91.6c-.1.4-.4.5-.7.6a71.7,71.7,0,0,1-8,18.2c2.4,1.4,5.3,3.1,7.3,4.5l-2.3,3.6a76.7,76.7,0,0,0-7.3-4.8,49.8,49.8,0,0,1-19.7,16.5,13.8,13.8,0,0,0-3-2.9,49.2,49.2,0,0,0,19.3-15.5,90.6,90.6,0,0,0-12.3-5.8l2.1-3a96.5,96.5,0,0,1,12.5,5.6A58.4,58.4,0,0,0,331.6,94H313.5a60.5,60.5,0,0,1-12.4,15c-.7-.6-2.2-1.9-3.1-2.5,7.2-5.5,13.5-15.1,16.8-24.5l5.1,1.5a1.3,1.3,0,0,1-1.5.7c-.8,2-1.8,4.1-2.8,6.1h17.8l.5-.2ZM332,80.7a37.7,37.7,0,0,1,7.3,7.7l-2.1,1.7a43.1,43.1,0,0,0-7.2-7.7Zm7-2a40.9,40.9,0,0,1,7.5,7.5l-2.1,1.7a36.9,36.9,0,0,0-7.3-7.5Z" fill="#d32027" stroke="#fff" stroke-miterlimit="10"/><path d="M394.5,128.5c-.8-1.8-1.8-3.8-2.9-5.8-11.5,1.2-30.3,2.4-38.7,2.8-.2.6-.5,1-1,1.1l-1.5-4.9,5.7-.3c3.7-10.5,8.9-27,11.9-38l5.4,1.5a1.7,1.7,0,0,1-1.6.7c-3.1,10.2-7.8,24.9-11.6,35.7,9.1-.4,22.2-1.3,29.4-2a92.6,92.6,0,0,0-9.8-13.4l3.3-1.9a107.6,107.6,0,0,1,15.2,22.8Z" fill="#d32027" stroke="#fff" stroke-miterlimit="10"/><path d="M199.9,199.9c-9.3,1.2-9.9,2.1-9.9,11v12.6a77.1,77.1,0,0,0,.9,14.2c-9.3,2.1-21.5,5.4-34.1,5.4-34,0-54.7-21.1-54.7-51.3s25.8-50.5,55.8-50.5c15.3,0,26.5,3,31.2,3.8.3,5.5,1,14.7,2.2,24.1l-4.5.9c-3.6-12.8-7.9-18.1-17.4-21.3-3.4-1.2-9.6-1.9-13.9-1.9-23,0-37.8,15.7-37.8,43.1,0,23.9,12.3,47.6,41.4,47.6a29.7,29.7,0,0,0,12.7-2.6c3.2-1.8,5.1-3.4,5.1-9.6V213.1c0-10.9-1.2-12.1-15.6-13.2v-4.3h38.6Z" fill="#d32027" stroke="#d32128" stroke-miterlimit="10"/><path d="M530.8,268.4c14.4,2.4,26.1,9.3,26.1,23.9,0,10.2-5.7,18.3-14.5,23.1s-15.5,5.8-26,5.8H479.5V317c12.8-1.2,13.5-2.5,13.5-14.4V242.5c0-12.5-1.3-13.5-13.5-14.6v-4.2h39.3c11.3,0,18.3,2,23.1,5.3a19.5,19.5,0,0,1,8.9,16.8C550.8,259.9,539.2,266.3,530.8,268.4Zm-17.2-1.8c16.5,0,23.2-6.6,23.2-18.9,0-10.5-6.4-18.6-20.8-18.6-4.2,0-6.9.5-8.4,1.5s-1.7,2.6-1.7,7.4v28.6Zm-7.7,35.7c0,10.8,2.6,13.5,13.2,13.5s23.1-6.3,23.1-22-10.8-21.9-29.1-21.9h-7.2Z" fill="#3954a5" stroke="#3a54a5" stroke-miterlimit="10" stroke-width="2"/><path d="M632.1,288.3a175.8,175.8,0,0,0-23,5.3V282c-8.1,6.8-14.7,11.6-22.9,11.6-10.1,0-18.8-6.2-18.8-22.5V242c0-8.1-1.2-9-4.9-9.8l-4.2-.7v-3.9a204.4,204.4,0,0,0,21.4-2.7c-.4,4.8-.4,12-.4,21.9v20.4c0,13.2,6.9,16.9,13.6,16.9s11.1-2.4,16.2-7.2V242c0-8.1-1.8-9.2-6.9-9.9l-4.8-.6v-3.9a228.8,228.8,0,0,0,23.6-2.7v50.2c0,7.5,1.2,8.6,6.9,8.9h4.2Z" fill="#3954a5" stroke="#3a54a5" stroke-miterlimit="10" stroke-width="2"/><path d="M639.4,291.8v-4.2c9.5-.9,10.5-1.7,10.5-11.9V244.8c0-9.3-.4-9.9-9.4-11.4v-3.6a96.3,96.3,0,0,0,21.3-6v51.9c0,10.2,1,11,10.8,11.9v4.2ZM655,209.1a8.1,8.1,0,0,1,.2-16.2c4.2,0,7.6,3.5,7.6,8.3A7.9,7.9,0,0,1,655,209.1Z" fill="#3954a5" stroke="#3a54a5" stroke-miterlimit="10" stroke-width="2"/><path d="M678.9,291.8v-4.2c9.6-.9,10.8-1.7,10.8-11.6V204.2c0-9.2-.8-10.1-10.4-11.3V189a106.3,106.3,0,0,0,22.2-5.1V276c0,9.9.9,10.7,10.7,11.6v4.2Z" fill="#3954a5" stroke="#3a54a5" stroke-miterlimit="10" stroke-width="2"/><path d="M792.6,288c-3.2.6-14.4,2.4-23.3,5.6v-9.8c-2.7,1.7-6.6,3.8-9.3,5.4-6,3.5-10,4.4-11.8,4.4-12,0-27.9-12-27.9-33s18.3-36.5,38.8-36.5c2.1,0,7.1.3,10.2,1.7V203.7c0-9.6-1-9.9-11.7-10.8V189c7.5-1,18-3.1,23.6-5.1v90.5c0,7.8,1,8.8,6.6,9.1l4.8.3Zm-23.3-50.4c-3.4-5.2-9.9-7.6-15.7-7.6s-20,4.8-20,26.4c0,18.1,11.3,27.7,20.9,27.9,5.4,0,11.2-2.7,14.8-5.4Z" fill="#3954a5" stroke="#3a54a5" stroke-miterlimit="10" stroke-width="2"/><path d="M460.7,101.5v17.9c4.3,6.6,12.2,6.6,22.1,6.6,5.9,0,12.9-.2,17.2-.5a12.1,12.1,0,0,0-1.2,3.8c-3.8.1-9.9.3-15.3.3-11.4,0-18.9,0-24.4-6.9-2.7,2.5-5.7,4.9-8,6.8,0,.5-.1.7-.5.9l-2.2-4.1a97,97,0,0,0,8.7-6.7V105H449v-3.5Zm-8.2-20.7a43.1,43.1,0,0,1,9.9,8.7l-3,2.5c-1.8-2.8-6-6.5-9.6-9Zm46.6,17.3v3.2H463.3V98.1h16.3v-8h-8.1a36.9,36.9,0,0,1-3.7,6.6,30.7,30.7,0,0,0-3.1-1.7c2.8-3.4,5.1-9.2,6.6-14.8l4.4,1.2c-.1.4-.5.5-1.2.5a46.6,46.6,0,0,1-1.6,4.9h6.7V79.5l4.7.2c0,.4-.3.7-1,.8v6.3h13.4v3.3H483.3v8Zm-4.6,24.4h-3.7v-1.9H472.4v2h-3.6V105.5h25.7Zm-22.1-5.2h18.4v-8.8H472.4Z" fill="#3954a5" stroke="#fff" stroke-miterlimit="10"/><path d="M519.1,103.6a32.7,32.7,0,0,1,13.6-3.2c8.7,0,14.2,5.1,14.2,13.2,0,10-8.7,15.5-19.8,15.5-7.1,0-12-2.9-12-7.7s4-7.4,9-7.4,10.4,4.9,11.2,9.9c4.4-1.6,7.6-5.1,7.6-10.2s-4.4-9.8-11.3-9.8-16.3,3.7-20,7.2c-1.6,1.6-3.8,3.9-5.2,5.6l-2.9-2.8c5-5.2,20.7-20.2,28.2-27.2-3.2.5-14.2.9-20.5,1.1-.1.4-.7.7-1.1.8l-.4-4.6c7.4-.1,21.6-.6,25.6-1.2l.8-.4,2.9,3.5a1.7,1.7,0,0,1-1.3.5c-3.9,3.2-14.4,13-18.6,17.1Zm7.5,22a21,21,0,0,0,5.1-.6c-.7-4.2-3.8-7.8-7.9-7.8s-5.3,1.6-5.3,4.1S523,125.6,526.6,125.6Z" fill="#3954a5" stroke="#fff" stroke-miterlimit="10"/></svg>